<?xml version="1.0" standalone="no"?>
<!DOCTYPE svg PUBLIC "-//W3C//DTD SVG 20010904//EN"
 "http://www.w3.org/TR/2001/REC-SVG-20010904/DTD/svg10.dtd">
<svg version="1.0" xmlns="http://www.w3.org/2000/svg"
 width="369.000000pt" height="365.000000pt" viewBox="0 0 369.000000 365.000000"
 preserveAspectRatio="xMidYMid meet">

<g transform="translate(0.000000,365.000000) scale(0.100000,-0.100000)"
fill="#000000" stroke="none">
<path d="M1705 3640 c-655 -61 -1242 -454 -1510 -1013 -104 -217 -144 -344
-171 -542 -18 -134 -18 -444 1 -565 56 -367 271 -763 548 -1008 288 -256 566
-400 912 -474 98 -20 135 -23 345 -23 312 1 467 26 682 111 342 134 550 287
779 572 260 323 378 634 395 1037 16 374 -55 666 -238 983 -90 156 -157 242
-292 378 -131 131 -228 208 -376 299 -118 72 -190 105 -344 155 -257 83 -492
112 -731 90z m455 -155 c345 -67 681 -252 937 -518 230 -239 362 -492 428
-821 43 -213 42 -417 -1 -666 -33 -189 -136 -434 -249 -591 -240 -334 -449
-498 -827 -649 -171 -69 -350 -97 -620 -99 -175 0 -264 9 -406 45 -534 133
-982 526 -1180 1034 -83 215 -102 323 -103 603 -2 309 61 550 220 844 64 120
255 337 399 454 233 191 549 332 837 375 120 18 449 11 565 -11z"/>
<path d="M1233 3253 c15 -2 37 -2 50 0 12 2 0 4 -28 4 -27 0 -38 -2 -22 -4z"/>
<path d="M2527 3214 c5 -13 2 -15 -18 -9 -16 5 -21 4 -14 -3 6 -6 28 -14 49
-18 32 -5 37 -4 31 7 -8 12 -6 12 8 1 9 -8 24 -12 34 -10 14 3 12 7 -12 20
-16 8 -42 18 -57 22 -23 5 -26 3 -21 -10z"/>
<path d="M1061 3100 c-154 -28 -233 -69 -341 -178 -104 -104 -133 -152 -161
-262 -18 -69 -20 -103 -16 -199 5 -133 28 -220 85 -321 31 -55 37 -75 37 -126
l1 -61 -85 -43 c-171 -88 -301 -253 -301 -381 0 -106 74 -327 159 -474 57
-100 169 -244 268 -346 87 -90 168 -157 177 -148 4 4 11 42 22 121 5 37 10 46
25 45 14 -1 18 -7 13 -22 -4 -16 -3 -17 5 -5 5 8 12 12 15 9 3 -3 11 -52 17
-110 8 -69 17 -110 28 -121 23 -24 257 -130 295 -133 17 -1 34 2 37 8 4 5 12
1 18 -11 6 -12 21 -26 32 -32 35 -19 221 -51 329 -56 l105 -5 47 63 c25 35 58
83 72 108 26 45 34 90 17 90 -14 0 -19 61 -5 67 7 2 95 -9 196 -26 305 -52
498 -64 564 -36 105 44 173 133 210 275 26 99 27 121 33 405 6 289 7 300 26
303 51 10 60 52 19 87 -26 23 -26 23 -5 30 15 4 21 14 20 33 0 27 0 27 -11 4
-6 -13 -17 -21 -23 -18 -52 20 -243 59 -295 60 l-65 2 -17 -35 c-24 -51 -23
-71 5 -71 13 0 28 5 33 10 11 11 134 2 273 -19 36 -6 68 -8 73 -5 4 3 8 -2 8
-11 0 -9 5 -13 10 -10 6 3 10 2 10 -3 0 -15 -36 -43 -65 -51 -32 -8 -188 11
-258 33 -36 11 -49 11 -52 3 -3 -7 -18 -82 -35 -167 -53 -271 -74 -340 -112
-364 -33 -20 -177 33 -503 184 -260 120 -245 116 -321 81 -36 -17 -72 -27 -83
-24 -12 3 -19 8 -17 12 8 12 -11 34 -23 27 -6 -4 -9 -12 -6 -17 3 -5 -1 -6
-10 -3 -14 6 -14 8 1 25 10 11 42 31 72 46 53 26 53 27 30 39 -12 7 -43 13
-68 14 -36 0 -53 -6 -80 -30 -28 -23 -45 -29 -81 -30 -40 0 -55 -6 -99 -42
-83 -68 -123 -111 -148 -159 -35 -65 -92 -144 -92 -126 0 9 7 23 16 31 8 9 12
21 8 27 -4 8 -3 9 4 5 7 -4 12 -1 12 8 0 8 4 16 8 18 15 6 52 80 46 90 -4 6
-2 8 3 5 10 -6 26 15 28 38 0 6 4 16 8 22 17 27 -12 11 -42 -22 -17 -20 -31
-32 -31 -28 0 10 -79 -100 -80 -110 0 -9 -40 -63 -40 -55 0 21 69 136 115 191
97 117 218 198 298 199 20 0 37 3 37 6 0 3 -9 25 -20 48 -19 37 -20 50 -11
127 20 171 96 250 268 276 81 12 118 24 128 42 11 16 13 142 3 155 -5 6 1 19
12 29 25 23 25 52 0 90 l-19 29 44 28 c72 45 73 56 9 126 -73 82 -93 130 -105
260 -20 205 -24 237 -32 250 -11 16 -78 -36 -119 -92 -84 -117 -117 -156 -118
-137 0 7 -6 11 -15 7 -9 -3 -15 0 -15 9 0 8 5 15 10 15 6 0 10 8 10 18 1 16 2
16 15 -2 14 -19 41 -13 29 6 -4 7 -2 8 4 4 7 -4 12 -3 12 3 0 5 -4 12 -10 16
-15 9 10 54 44 75 17 11 43 30 58 42 58 50 69 58 78 58 6 0 10 5 10 10 0 17
-14 11 -50 -20 -19 -16 -40 -29 -46 -30 -6 0 -62 -52 -125 -116 -63 -63 -156
-157 -206 -208 -51 -51 -93 -97 -93 -102 -1 -8 -16 -26 -121 -141 -22 -24 -44
-43 -49 -43 -13 0 -13 27 0 35 5 3 7 12 4 19 -3 8 -1 17 5 21 6 3 11 15 11 26
0 21 35 27 43 7 3 -7 3 5 0 28 -5 36 -1 45 26 73 17 17 34 44 37 59 4 15 16
43 28 62 11 19 33 57 47 85 53 98 169 241 265 326 48 42 45 56 -12 69 -59 14
-110 12 -124 -5 -9 -10 -9 -15 -1 -15 6 0 11 -7 11 -15 0 -8 -7 -15 -15 -15
-19 0 -65 -29 -65 -41 0 -5 -19 -29 -42 -52 -24 -24 -76 -77 -117 -120 -68
-70 -78 -77 -113 -77 -21 0 -38 -4 -38 -10 0 -5 8 -10 18 -10 13 0 14 -2 3 -9
-12 -8 -20 -8 -50 -2 -2 1 1 7 7 14 10 11 16 46 13 76 -1 11 -4 11 -18 0 -15
-13 -15 -12 -2 9 8 12 15 18 17 12 8 -23 51 7 51 35 0 6 -6 1 -14 -9 -22 -29
-29 -12 -11 26 24 50 210 238 236 238 6 0 10 5 10 10 0 15 -71 11 -189 -10z
m369 -90 c0 -5 -5 -10 -11 -10 -5 0 -7 5 -4 10 3 6 8 10 11 10 2 0 4 -4 4 -10z
m-499 -273 c-10 -9 -11 -8 -5 6 3 10 9 15 12 12 3 -3 0 -11 -7 -18z m39 3 c0
-5 -5 -10 -11 -10 -5 0 -7 5 -4 10 3 6 8 10 11 10 2 0 4 -4 4 -10z m306 -637
c118 -56 158 -201 82 -298 -26 -33 -111 -75 -153 -75 -103 1 -196 112 -181
216 11 84 68 154 125 154 11 0 26 7 33 15 18 20 30 19 94 -12z m89 -873 c28
-29 28 -30 10 -50 -14 -16 -26 -19 -45 -15 -53 14 -67 52 -28 79 29 21 30 21
63 -14z m-117 -136 c12 -8 22 -23 22 -32 -1 -20 -23 -52 -37 -52 -20 0 -62 41
-58 55 3 8 7 22 10 30 6 19 35 19 63 -1z m156 -89 c-9 -14 -18 -25 -21 -25 -5
0 5 18 20 38 17 22 18 13 1 -13z m-225 -84 c20 -16 22 -22 14 -47 -18 -55 -92
-35 -89 24 3 53 25 60 75 23z m114 -16 c-3 -9 -8 -14 -10 -11 -3 3 -2 9 2 15
9 16 15 13 8 -4z m-27 -91 c-4 -14 -9 -24 -12 -21 -3 2 -2 17 2 31 3 15 9 25
11 22 3 -3 2 -17 -1 -32z m-329 -36 c-3 -8 -6 -5 -6 6 -1 11 2 17 5 13 3 -3 4
-12 1 -19z m209 -53 c9 -35 1 -39 -48 -29 -27 6 -44 15 -46 26 -2 13 2 15 19
11 15 -4 20 -3 15 5 -5 8 3 12 23 12 24 0 32 -5 37 -25z m91 -57 c-2 -13 -4
-3 -4 22 0 25 2 35 4 23 2 -13 2 -33 0 -45z m-113 -74 c31 -12 13 -74 -21 -74
-20 0 -53 38 -53 60 0 15 7 20 29 20 16 0 36 -3 45 -6z"/>
<path d="M1230 2100 c-9 -6 -10 -10 -3 -10 6 0 15 5 18 10 8 12 4 12 -15 0z"/>
<path d="M1126 2036 c-35 -47 -46 -72 -46 -106 0 -74 57 -136 125 -134 108 2
176 104 130 194 -23 44 -63 67 -128 72 -56 5 -59 3 -81 -26z"/>
<path d="M1068 713 c7 -3 16 -2 19 1 4 3 -2 6 -13 5 -11 0 -14 -3 -6 -6z"/>
<path d="M2485 3078 c-11 -6 -41 -30 -66 -53 -25 -24 -65 -55 -89 -71 -24 -16
-49 -33 -56 -39 -10 -7 -18 -3 -30 13 -22 32 -56 25 -67 -13 -18 -59 -37 -96
-54 -102 -37 -13 -113 -76 -119 -97 -13 -54 78 -176 130 -176 27 0 76 51 76
80 0 22 15 34 65 50 22 7 49 19 60 26 11 8 27 14 37 14 20 0 91 -83 203 -234
44 -60 99 -130 122 -156 l43 -47 -21 -21 c-11 -12 -26 -22 -33 -22 -23 0 -25
-23 -10 -121 11 -67 13 -131 9 -225 l-7 -132 26 5 c35 7 184 -16 217 -33 34
-17 44 -6 54 56 10 60 55 111 55 62 0 -17 84 -156 139 -230 32 -41 100 -75
135 -66 67 17 94 99 57 179 -19 42 -158 222 -205 264 -33 31 -32 47 4 95 39
51 38 73 -5 132 -19 27 -47 73 -62 102 -23 44 -34 54 -65 63 -38 10 -47 22
-28 34 15 9 12 51 -5 65 -22 18 -62 4 -102 -35 -20 -19 -38 -35 -39 -35 -2 0
-12 17 -23 38 -10 20 -61 91 -112 157 -102 132 -159 220 -159 246 0 29 54 65
157 105 54 21 102 41 107 45 13 11 -50 46 -123 69 -70 22 -184 26 -216 8z"/>
<path d="M2677 2843 c-8 -7 11 -33 24 -33 5 0 9 5 9 11 0 5 -4 7 -10 4 -5 -3
-10 -2 -10 4 0 5 8 12 18 14 14 4 13 5 -4 6 -11 0 -24 -2 -27 -6z"/>
<path d="M1926 2794 c-4 -14 -5 -28 -3 -31 3 -2 8 8 11 23 4 14 5 28 3 31 -3
2 -8 -8 -11 -23z"/>
<path d="M2695 2790 c3 -5 8 -10 11 -10 2 0 4 5 4 10 0 6 -5 10 -11 10 -5 0
-7 -4 -4 -10z"/>
<path d="M1551 2744 c0 -11 3 -14 6 -6 3 7 2 16 -1 19 -3 4 -6 -2 -5 -13z"/>
<path d="M1892 2685 c0 -16 2 -22 5 -12 2 9 2 23 0 30 -3 6 -5 -1 -5 -18z"/>
<path d="M1886 2583 c9 -38 14 -42 14 -10 0 14 -5 29 -10 32 -7 4 -8 -3 -4
-22z"/>
<path d="M430 2420 c0 -27 4 -39 11 -35 10 7 5 -60 -8 -107 -2 -10 0 -18 6
-18 10 0 15 26 12 60 -2 13 0 13 8 1 5 -8 7 -30 4 -49 -5 -25 -3 -33 5 -28 8
5 12 -4 12 -27 0 -19 7 -40 16 -47 11 -10 14 -25 10 -54 -4 -27 -3 -32 2 -16
7 23 9 23 15 6 4 -11 3 -24 -2 -29 -6 -6 -2 -16 12 -28 12 -10 16 -18 9 -19
-7 0 -20 9 -29 20 -20 23 -33 26 -33 7 0 -7 -6 -22 -14 -33 -15 -19 -15 -19
-30 1 -15 20 -15 20 -16 -2 0 -15 -6 -23 -17 -24 -11 0 -13 -3 -6 -6 8 -3 2
-14 -18 -30 -16 -14 -33 -23 -36 -19 -3 3 2 8 11 12 9 3 16 11 16 16 0 6 -7 8
-15 5 -8 -4 -17 -1 -21 5 -4 7 -3 8 4 4 8 -5 10 -1 5 10 -4 11 -8 13 -11 6 -8
-26 -52 1 -52 32 0 9 -4 16 -10 16 -12 0 -13 -37 -1 -42 10 -3 14 -27 12 -77
-1 -30 -3 -32 -18 -20 -16 12 -17 12 -5 -2 7 -9 9 -25 6 -35 -5 -13 1 -10 17
9 14 15 29 27 34 27 6 0 3 -5 -5 -10 -12 -8 -13 -11 -1 -19 9 -6 10 -11 2 -15
-6 -4 -11 -2 -11 4 0 6 -5 8 -11 5 -6 -4 -8 -13 -5 -21 7 -18 -4 -45 -15 -38
-5 3 -9 -7 -8 -23 l0 -28 17 25 c54 77 95 118 151 150 34 19 81 47 106 62 l43
27 -34 68 c-36 72 -70 193 -81 283 -3 30 -12 61 -20 68 -11 11 -13 7 -13 -28z
m-1 -453 c-2 -1 -13 -9 -24 -17 -19 -14 -19 -14 -6 3 7 9 18 17 24 17 6 0 8
-1 6 -3z"/>
<path d="M412 2395 c0 -11 3 -29 8 -40 11 -25 11 1 0 35 -6 20 -8 21 -8 5z"/>
<path d="M361 2364 c0 -11 3 -14 6 -6 3 7 2 16 -1 19 -3 4 -6 -2 -5 -13z"/>
<path d="M336 2315 c-9 -26 -7 -32 5 -12 6 10 9 21 6 23 -2 3 -7 -2 -11 -11z"/>
<path d="M3266 2273 c-6 -14 -5 -15 5 -6 7 7 10 15 7 18 -3 3 -9 -2 -12 -12z"/>
<path d="M3275 2230 c3 -5 8 -10 11 -10 2 0 4 5 4 10 0 6 -5 10 -11 10 -5 0
-7 -4 -4 -10z"/>
<path d="M284 2147 c-13 -41 -14 -59 -6 -73 10 -17 11 -16 11 11 -1 17 4 48 9
70 16 60 6 54 -14 -8z"/>
<path d="M3250 2050 c0 -5 5 -10 11 -10 5 0 7 5 4 10 -3 6 -8 10 -11 10 -2 0
-4 -4 -4 -10z"/>
<path d="M3396 1857 c3 -10 9 -15 12 -12 3 3 0 11 -7 18 -10 9 -11 8 -5 -6z"/>
<path d="M3422 1804 c7 -15 14 -21 16 -15 5 16 -5 41 -17 41 -7 0 -6 -10 1
-26z"/>
<path d="M1586 1694 c-4 -16 -2 -31 5 -38 8 -8 10 -7 7 4 -3 8 -1 25 3 38 5
12 5 22 0 22 -5 0 -12 -12 -15 -26z"/>
<path d="M1571 1574 c0 -11 3 -14 6 -6 3 7 2 16 -1 19 -3 4 -6 -2 -5 -13z"/>
<path d="M1597 1539 c7 -7 15 -10 18 -7 3 3 -2 9 -12 12 -14 6 -15 5 -6 -5z"/>
<path d="M3130 1490 c0 -6 -11 -28 -25 -48 -24 -36 -25 -42 -25 -212 0 -96 -7
-236 -14 -310 -8 -74 -13 -137 -11 -138 2 -2 16 16 31 40 16 23 41 60 57 81
16 20 24 37 19 37 -6 0 -12 -6 -15 -12 -2 -8 -8 -9 -13 -4 -5 5 -3 11 6 14 23
7 83 74 102 113 9 19 34 70 56 114 22 44 53 123 70 175 17 52 33 103 37 112 6
15 2 15 -34 -3 -33 -15 -58 -19 -115 -17 -41 2 -70 5 -65 9 5 3 -1 14 -13 26
-32 28 -48 36 -48 23z m14 -58 c-6 -4 -14 -14 -17 -22 -4 -10 -6 -8 -6 8 -1
15 5 22 17 22 10 0 13 -3 6 -8z m-37 -39 c-3 -10 -5 -4 -5 12 0 17 2 24 5 18
2 -7 2 -21 0 -30z m13 -488 c0 -8 -4 -15 -10 -15 -5 0 -7 7 -4 15 4 8 8 15 10
15 2 0 4 -7 4 -15z"/>
<path d="M2096 444 c-3 -9 -4 -20 0 -25 3 -5 0 -9 -7 -9 -7 0 -10 -11 -6 -32
3 -18 3 -27 0 -20 -7 18 -23 4 -16 -15 4 -10 2 -14 -5 -9 -6 3 -13 -3 -17 -14
-3 -11 -11 -20 -16 -20 -5 0 -9 -6 -9 -13 0 -15 6 -14 150 4 47 7 101 17 120
24 19 7 56 19 82 25 26 7 46 15 44 19 -2 3 7 7 20 7 13 1 45 12 71 25 l48 24
-140 7 c-77 4 -175 14 -218 23 -95 19 -94 19 -101 -1z m248 -32 c2 -4 -12 -6
-32 -4 -56 5 -62 10 -15 11 23 1 44 -3 47 -7z m-7 -38 c-3 -3 -12 -4 -19 -1
-8 3 -5 6 6 6 11 1 17 -2 13 -5z m18 -24 c-11 -5 -29 -8 -40 -8 -16 0 -15 2 5
8 34 11 60 11 35 0z"/>
</g>
</svg>
